<?xml version="1.0" encoding="UTF-8"?>
<svg xmlns="http://www.w3.org/2000/svg" xmlns:xlink="http://www.w3.org/1999/xlink" width="16px" height="16px" viewBox="0 0 16 16" version="1.1">
<defs>
<filter id="alpha" filterUnits="objectBoundingBox" x="0%" y="0%" width="100%" height="100%">
  <feColorMatrix type="matrix" in="SourceGraphic" values="0 0 0 0 1 0 0 0 0 1 0 0 0 0 1 0 0 0 1 0"/>
</filter>
<mask id="mask0">
  <g filter="url(#alpha)">
<rect x="0" y="0" width="16" height="16" style="fill:rgb(0%,0%,0%);fill-opacity:0.101961;stroke:none;"/>
  </g>
</mask>
<clipPath id="clip1">
  <rect x="0" y="0" width="16" height="16"/>
</clipPath>
<g id="surface5" clip-path="url(#clip1)">
<path style=" stroke:none;fill-rule:nonzero;fill:rgb(13.72549%,12.156863%,12.54902%);fill-opacity:1;" d="M 2.816406 13.183594 C 4.140625 14.511719 5.976562 15.332031 8 15.332031 C 12.050781 15.332031 15.332031 12.050781 15.332031 8 C 15.332031 5.976562 14.511719 4.140625 13.183594 2.816406 Z M 2.816406 13.183594 "/>
</g>
</defs>
<g id="surface1">
<path style=" stroke:none;fill-rule:nonzero;fill:rgb(26.27451%,29.019608%,32.941176%);fill-opacity:1;" d="M 15.332031 8 C 15.332031 12.050781 12.050781 15.332031 8 15.332031 C 3.949219 15.332031 0.667969 12.050781 0.667969 8 C 0.667969 3.949219 3.949219 0.667969 8 0.667969 C 12.050781 0.667969 15.332031 3.949219 15.332031 8 Z M 15.332031 8 "/>
<path style=" stroke:none;fill-rule:nonzero;fill:rgb(100%,100%,100%);fill-opacity:1;" d="M 9.542969 12.628906 C 9.542969 12.4375 9.546875 11.824219 9.546875 11.058594 C 9.546875 10.523438 9.367188 10.175781 9.160156 10 C 10.433594 9.855469 11.773438 9.375 11.773438 7.175781 C 11.773438 6.550781 11.550781 6.042969 11.183594 5.640625 C 11.242188 5.496094 11.4375 4.914062 11.128906 4.128906 C 11.128906 4.128906 10.648438 3.972656 9.554688 4.714844 C 9.097656 4.585938 8.609375 4.523438 8.125 4.519531 C 7.636719 4.523438 7.148438 4.585938 6.691406 4.714844 C 5.597656 3.972656 5.117188 4.128906 5.117188 4.128906 C 4.808594 4.914062 5.003906 5.496094 5.0625 5.640625 C 4.695312 6.042969 4.472656 6.550781 4.472656 7.175781 C 4.472656 9.367188 5.808594 9.859375 7.078125 10.003906 C 6.914062 10.144531 6.765625 10.398438 6.714844 10.769531 C 6.390625 10.914062 5.5625 11.167969 5.050781 10.292969 C 5.050781 10.292969 4.75 9.742188 4.175781 9.703125 C 4.175781 9.703125 3.617188 9.695312 4.136719 10.050781 C 4.136719 10.050781 4.511719 10.226562 4.769531 10.886719 C 4.769531 10.886719 5.105469 11.910156 6.699219 11.5625 C 6.699219 12.039062 6.707031 12.492188 6.707031 12.628906 C 6.707031 12.675781 6.695312 12.726562 6.671875 12.769531 C 7.164062 12.921875 7.683594 13.003906 8.226562 13.003906 C 8.703125 13.003906 9.167969 12.9375 9.605469 12.820312 C 9.5625 12.765625 9.542969 12.695312 9.542969 12.628906 Z M 9.542969 12.628906 "/>
<use xlink:href="#surface5" mask="url(#mask0)"/>
</g>
</svg>
